<mxfile host="app.diagrams.net" modified="2024-01-10T17:11:48.026Z" agent="Mozilla/5.0 (Macintosh; Intel Mac OS X 10_15_7) AppleWebKit/537.36 (KHTML, like Gecko) Chrome/120.0.0.0 Safari/537.36" version="21.5.2" etag="x_dfL3oaAwQU8WI5zOgs" type="github">
  <diagram name="Page-1" id="2D-j4peeR28iyPinQJob">
    <mxGraphModel>
      <root>
        <mxCell id="0" />
        <mxCell id="1" parent="0" />
      </root>
    </mxGraphModel>
  </diagram>
</mxfile>
